{"accessors" : [{"bufferView" : 0, "byteOffset" : 0, "componentType" : 5123, "count" : 324, "type" : "SCALAR", "max" : [323], "min" : [0]}, {"bufferView" : 1, "byteOffset" : 0, "componentType" : 5126, "count" : 324, "type" : "VEC3", "max" : [23.74933624267578, 61.538944244384766, 2.70031476020813], "min" : [22.674280166625977, 31.820642471313477, -0]}, {"bufferView" : 1, "byteOffset" : 12, "componentType" : 5126, "count" : 324, "type" : "VEC3", "max" : [1.0000044107437134, 0.3214408755302429, 1.0000044107437134], "min" : [-1.0000044107437134, -0.3214408755302429, -0.9978632926940918]}, {"bufferView" : 1, "byteOffset" : 24, "componentType" : 5126, "count" : 324, "type" : "VEC2", "max" : [10723.0361328125, 14508.416015625], "min" : [-10722.720703125, -612.2969970703125]}, {"bufferView" : 0, "byteOffset" : 648, "componentType" : 5123, "count" : 324, "type" : "SCALAR", "max" : [323], "min" : [0]}, {"bufferView" : 2, "byteOffset" : 0, "componentType" : 5126, "count" : 324, "type" : "VEC3", "max" : [35.483924865722656, 18.849445343017578, 2.70031476020813], "min" : [5.765625, 17.774389266967773, -0]}, {"bufferView" : 2, "byteOffset" : 12, "componentType" : 5126, "count" : 324, "type" : "VEC3", "max" : [0.3214408755302429, 1.0000044107437134, 1.0000044107437134], "min" : [-0.3214408755302429, -1.0000044107437134, -0.9978632926940918]}, {"bufferView" : 2, "byteOffset" : 24, "componentType" : 5126, "count" : 324, "type" : "VEC2", "max" : [10734.7705078125, 13320.751953125], "min" : [-10733.79296875, -10055.0517578125]}, {"bufferView" : 0, "byteOffset" : 1296, "componentType" : 5123, "count" : 36, "type" : "SCALAR", "max" : [35], "min" : [0]}, {"bufferView" : 3, "byteOffset" : 0, "componentType" : 5126, "count" : 36, "type" : "VEC3", "max" : [20.375, 71.60238647460938, -0], "min" : [0, 21.47012710571289, -2]}, {"bufferView" : 3, "byteOffset" : 12, "componentType" : 5126, "count" : 36, "type" : "VEC3", "max" : [1.0000044107437134, 1.0000044107437134, 1.0000044107437134], "min" : [-1.0000044107437134, -1.0000044107437134, -1.0000044107437134]}, {"bufferView" : 3, "byteOffset" : 24, "componentType" : 5126, "count" : 36, "type" : "VEC2", "max" : [10719.6611328125, 9819.3212890625], "min" : [-10719.6611328125, -74.00238800048828]}, {"bufferView" : 0, "byteOffset" : 1368, "componentType" : 5123, "count" : 36, "type" : "SCALAR", "max" : [35], "min" : [0]}, {"bufferView" : 4, "byteOffset" : 0, "componentType" : 5126, "count" : 36, "type" : "VEC3", "max" : [41.25, 71.85238647460938, -2], "min" : [0, -1.3322676295501878E-15, -25.125]}, {"bufferView" : 4, "byteOffset" : 12, "componentType" : 5126, "count" : 36, "type" : "VEC3", "max" : [1.0000044107437134, 1.0000044107437134, 1.0000044107437134], "min" : [-1.0000044107437134, -1.0000044107437134, -1.0000044107437134]}, {"bufferView" : 4, "byteOffset" : 24, "componentType" : 5126, "count" : 36, "type" : "VEC2", "max" : [10740.5361328125, 9842.4462890625], "min" : [-10740.5361328125, -74.25238800048828]}, {"bufferView" : 0, "byteOffset" : 1440, "componentType" : 5123, "count" : 126, "type" : "SCALAR", "max" : [125], "min" : [0]}, {"bufferView" : 5, "byteOffset" : 0, "componentType" : 5126, "count" : 126, "type" : "VEC3", "max" : [41.25, 80.7249984741211, -0], "min" : [0, 71.85238647460938, -2]}, {"bufferView" : 5, "byteOffset" : 12, "componentType" : 5126, "count" : 126, "type" : "VEC3", "max" : [1.0000044107437134, 1.0000044107437134, 1.0000044107437134], "min" : [-1.0000044107437134, -1.0000044107437134, -1.0000044107437134]}, {"bufferView" : 5, "byteOffset" : 24, "componentType" : 5126, "count" : 126, "type" : "VEC2", "max" : [10740.5361328125, 9819.3212890625], "min" : [-10740.5361328125, -83.125]}, {"bufferView" : 0, "byteOffset" : 1692, "componentType" : 5123, "count" : 36, "type" : "SCALAR", "max" : [35], "min" : [0]}, {"bufferView" : 6, "byteOffset" : 0, "componentType" : 5126, "count" : 36, "type" : "VEC3", "max" : [41.25, 71.60238647460938, -0], "min" : [20.875, 21.47012710571289, -2]}, {"bufferView" : 6, "byteOffset" : 12, "componentType" : 5126, "count" : 36, "type" : "VEC3", "max" : [1.0000044107437134, 1.0000044107437134, 1.0000044107437134], "min" : [-1.0000044107437134, -1.0000044107437134, -1.0000044107437134]}, {"bufferView" : 6, "byteOffset" : 24, "componentType" : 5126, "count" : 36, "type" : "VEC2", "max" : [10740.5361328125, 9819.3212890625], "min" : [-10740.5361328125, -74.00238800048828]}, {"bufferView" : 0, "byteOffset" : 1764, "componentType" : 5123, "count" : 36, "type" : "SCALAR", "max" : [35], "min" : [0]}, {"bufferView" : 7, "byteOffset" : 0, "componentType" : 5126, "count" : 36, "type" : "VEC3", "max" : [41.25, 20.490825653076172, -0], "min" : [0, -3.9968028886505635E-15, -2]}, {"bufferView" : 7, "byteOffset" : 12, "componentType" : 5126, "count" : 36, "type" : "VEC3", "max" : [1.0000044107437134, 1.0000044107437134, 1.0000044107437134], "min" : [-1.0000044107437134, -1.0000044107437134, -1.0000044107437134]}, {"bufferView" : 7, "byteOffset" : 24, "componentType" : 5126, "count" : 36, "type" : "VEC2", "max" : [10740.5361328125, 9819.3212890625], "min" : [-10740.5361328125, -22.890827178955078]}, {"bufferView" : 0, "byteOffset" : 1836, "componentType" : 5123, "count" : 36, "type" : "SCALAR", "max" : [35], "min" : [0]}, {"bufferView" : 8, "byteOffset" : 0, "componentType" : 5126, "count" : 36, "type" : "VEC3", "max" : [40.75, -1.7763568394002505E-15, -2], "min" : [0.5, -2.4000000953674316, -25.125]}, {"bufferView" : 8, "byteOffset" : 12, "componentType" : 5126, "count" : 36, "type" : "VEC3", "max" : [1.0000044107437134, 1.0000044107437134, 1.0000044107437134], "min" : [-1.0000044107437134, -1.0000044107437134, -1.0000044107437134]}, {"bufferView" : 8, "byteOffset" : 24, "componentType" : 5126, "count" : 36, "type" : "VEC2", "max" : [10740.0361328125, 9842.4462890625], "min" : [-10740.0361328125, -2.4000000953674316]}, {"bufferView" : 0, "byteOffset" : 1908, "componentType" : 5123, "count" : 324, "type" : "SCALAR", "max" : [323], "min" : [0]}, {"bufferView" : 9, "byteOffset" : 0, "componentType" : 5126, "count" : 324, "type" : "VEC3", "max" : [18.575719833374023, 61.538944244384766, 2.70031476020813], "min" : [17.50066375732422, 31.820642471313477, -0]}, {"bufferView" : 9, "byteOffset" : 12, "componentType" : 5126, "count" : 324, "type" : "VEC3", "max" : [1.0000044107437134, 0.3214408755302429, 1.0000044107437134], "min" : [-1.0000044107437134, -0.3214408755302429, -0.9978632926940918]}, {"bufferView" : 9, "byteOffset" : 24, "componentType" : 5126, "count" : 324, "type" : "VEC2", "max" : [10717.8623046875, 14504.76953125], "min" : [-10717.5478515625, -608.6504516601562]}], "asset" : {"generator" : "Aspose.3D 20.9.1", "version" : "2.0"}, "buffers" : [{"uri" : "buffer.bin", "byteLength" : 43492}], "bufferViews" : [{"buffer" : 0, "byteOffset" : 0, "byteLength" : 2556, "target" : 34963}, {"buffer" : 0, "byteOffset" : 2560, "byteLength" : 10368, "byteStride" : 32, "target" : 34962}, {"buffer" : 0, "byteOffset" : 12932, "byteLength" : 10368, "byteStride" : 32, "target" : 34962}, {"buffer" : 0, "byteOffset" : 23304, "byteLength" : 1152, "byteStride" : 32, "target" : 34962}, {"buffer" : 0, "byteOffset" : 24460, "byteLength" : 1152, "byteStride" : 32, "target" : 34962}, {"buffer" : 0, "byteOffset" : 25616, "byteLength" : 4032, "byteStride" : 32, "target" : 34962}, {"buffer" : 0, "byteOffset" : 29652, "byteLength" : 1152, "byteStride" : 32, "target" : 34962}, {"buffer" : 0, "byteOffset" : 30808, "byteLength" : 1152, "byteStride" : 32, "target" : 34962}, {"buffer" : 0, "byteOffset" : 31964, "byteLength" : 1152, "byteStride" : 32, "target" : 34962}, {"buffer" : 0, "byteOffset" : 33120, "byteLength" : 10368, "byteStride" : 32, "target" : 34962}], "materials" : [{"pbrMetallicRoughness" : {"baseColorFactor" : [0.756862745098039, 0.756862745098039, 0.756862745098039, 1], "metallicFactor" : 0, "roughnessFactor" : 0}, "emissiveFactor" : [0, 0, 0], "alphaMode" : "OPAQUE", "doubleSided" : false}, {"pbrMetallicRoughness" : {"baseColorFactor" : [0.756862745098039, 0.756862745098039, 0.756862745098039, 1], "metallicFactor" : 0, "roughnessFactor" : 0}, "emissiveFactor" : [0, 0, 0], "alphaMode" : "OPAQUE", "doubleSided" : false}, {"pbrMetallicRoughness" : {"baseColorFactor" : [0.756862745098039, 0.756862745098039, 0.756862745098039, 1], "metallicFactor" : 0, "roughnessFactor" : 0}, "emissiveFactor" : [0, 0, 0], "alphaMode" : "OPAQUE", "doubleSided" : false}, {"pbrMetallicRoughness" : {"baseColorFactor" : [0.30980392156862707, 0.30980392156862707, 0.30980392156862707, 1], "metallicFactor" : 0, "roughnessFactor" : 0}, "emissiveFactor" : [0, 0, 0], "alphaMode" : "OPAQUE", "doubleSided" : false}, {"pbrMetallicRoughness" : {"baseColorFactor" : [0.756862745098039, 0.756862745098039, 0.756862745098039, 1], "metallicFactor" : 0, "roughnessFactor" : 0}, "emissiveFactor" : [0, 0, 0], "alphaMode" : "OPAQUE", "doubleSided" : false}, {"pbrMetallicRoughness" : {"baseColorFactor" : [0.756862745098039, 0.756862745098039, 0.756862745098039, 1], "metallicFactor" : 0, "roughnessFactor" : 0}, "emissiveFactor" : [0, 0, 0], "alphaMode" : "OPAQUE", "doubleSided" : false}, {"pbrMetallicRoughness" : {"baseColorFactor" : [0.756862745098039, 0.756862745098039, 0.756862745098039, 1], "metallicFactor" : 0, "roughnessFactor" : 0}, "emissiveFactor" : [0, 0, 0], "alphaMode" : "OPAQUE", "doubleSided" : false}, {"pbrMetallicRoughness" : {"baseColorFactor" : [0.30980392156862707, 0.30980392156862707, 0.30980392156862707, 1], "metallicFactor" : 0, "roughnessFactor" : 0}, "emissiveFactor" : [0, 0, 0], "alphaMode" : "OPAQUE", "doubleSided" : false}, {"pbrMetallicRoughness" : {"baseColorFactor" : [0.756862745098039, 0.756862745098039, 0.756862745098039, 1], "metallicFactor" : 0, "roughnessFactor" : 0}, "emissiveFactor" : [0, 0, 0], "alphaMode" : "OPAQUE", "doubleSided" : false}], "meshes" : [{"primitives" : [{"attributes" : {"POSITION" : 1, "NORMAL" : 2, "TEXCOORD_0" : 3}, "indices" : 0, "material" : 0, "mode" : 4}]}, {"primitives" : [{"attributes" : {"POSITION" : 5, "NORMAL" : 6, "TEXCOORD_0" : 7}, "indices" : 4, "material" : 1, "mode" : 4}]}, {"primitives" : [{"attributes" : {"POSITION" : 9, "NORMAL" : 10, "TEXCOORD_0" : 11}, "indices" : 8, "material" : 2, "mode" : 4}]}, {"primitives" : [{"attributes" : {"POSITION" : 13, "NORMAL" : 14, "TEXCOORD_0" : 15}, "indices" : 12, "material" : 3, "mode" : 4}]}, {"primitives" : [{"attributes" : {"POSITION" : 17, "NORMAL" : 18, "TEXCOORD_0" : 19}, "indices" : 16, "material" : 4, "mode" : 4}]}, {"primitives" : [{"attributes" : {"POSITION" : 21, "NORMAL" : 22, "TEXCOORD_0" : 23}, "indices" : 20, "material" : 5, "mode" : 4}]}, {"primitives" : [{"attributes" : {"POSITION" : 25, "NORMAL" : 26, "TEXCOORD_0" : 27}, "indices" : 24, "material" : 6, "mode" : 4}]}, {"primitives" : [{"attributes" : {"POSITION" : 29, "NORMAL" : 30, "TEXCOORD_0" : 31}, "indices" : 28, "material" : 7, "mode" : 4}]}, {"primitives" : [{"attributes" : {"POSITION" : 33, "NORMAL" : 34, "TEXCOORD_0" : 35}, "indices" : 32, "material" : 8, "mode" : 4}]}], "nodes" : [{"mesh" : 0, "name" : "Mesh1"}, {"children" : [0], "name" : "Group_1"}, {"mesh" : 1, "name" : "Mesh2"}, {"children" : [2], "name" : "Group_2"}, {"mesh" : 2, "name" : "Mesh3"}, {"children" : [4], "name" : "Group_3"}, {"mesh" : 3, "name" : "Mesh4"}, {"children" : [6], "name" : "Group_4"}, {"mesh" : 4, "name" : "Mesh5"}, {"children" : [8], "name" : "Group_5"}, {"mesh" : 5, "name" : "Mesh6"}, {"children" : [10], "name" : "Group_6"}, {"mesh" : 6, "name" : "Mesh7"}, {"children" : [12], "name" : "Group_7"}, {"mesh" : 7, "name" : "Mesh8"}, {"children" : [14], "name" : "Group_8"}, {"mesh" : 8, "name" : "Mesh9"}, {"children" : [16], "name" : "Group_9"}, {"children" : [1, 3, 5, 7, 9, 11, 13, 15, 17], "name" : "Model"}], "scene" : 0, "scenes" : [{"nodes" : [18]}]}