{"accessors" : [{"bufferView" : 0, "byteOffset" : 0, "componentType" : 5123, "count" : 6, "type" : "SCALAR", "max" : [5], "min" : [0]}, {"bufferView" : 1, "byteOffset" : 0, "componentType" : 5126, "count" : 6, "type" : "VEC3", "max" : [15.916779518127441, 2.001739978790283, 71.60238647460938], "min" : [15.568792343139648, 1.9982600212097168, 71.60238647460938]}, {"bufferView" : 1, "byteOffset" : 12, "componentType" : 5126, "count" : 6, "type" : "VEC2", "max" : [1, -0], "min" : [0, -1]}, {"bufferView" : 0, "byteOffset" : 12, "componentType" : 5123, "count" : 324, "type" : "SCALAR", "max" : [323], "min" : [0]}, {"bufferView" : 2, "byteOffset" : 0, "componentType" : 5126, "count" : 324, "type" : "VEC3", "max" : [23.74933624267578, 0, 61.538944244384766], "min" : [22.674280166625977, -2.70031476020813, 31.820642471313477]}, {"bufferView" : 2, "byteOffset" : 12, "componentType" : 5126, "count" : 324, "type" : "VEC2", "max" : [10723.0361328125, 14508.416015625], "min" : [-10722.720703125, -612.2969970703125]}, {"bufferView" : 0, "byteOffset" : 660, "componentType" : 5123, "count" : 324, "type" : "SCALAR", "max" : [323], "min" : [0]}, {"bufferView" : 3, "byteOffset" : 0, "componentType" : 5126, "count" : 324, "type" : "VEC3", "max" : [35.483924865722656, 0, 18.849445343017578], "min" : [5.765625, -2.70031476020813, 17.774389266967773]}, {"bufferView" : 3, "byteOffset" : 12, "componentType" : 5126, "count" : 324, "type" : "VEC2", "max" : [10734.7705078125, 13320.751953125], "min" : [-10733.79296875, -10055.0517578125]}, {"bufferView" : 0, "byteOffset" : 1308, "componentType" : 5123, "count" : 36, "type" : "SCALAR", "max" : [35], "min" : [0]}, {"bufferView" : 4, "byteOffset" : 0, "componentType" : 5126, "count" : 36, "type" : "VEC3", "max" : [20.375, 2, 71.60238647460938], "min" : [0, 0, 21.47012710571289]}, {"bufferView" : 4, "byteOffset" : 12, "componentType" : 5126, "count" : 36, "type" : "VEC2", "max" : [10719.6611328125, 9819.3212890625], "min" : [-10719.6611328125, -74.00238800048828]}, {"bufferView" : 0, "byteOffset" : 1380, "componentType" : 5123, "count" : 36, "type" : "SCALAR", "max" : [35], "min" : [0]}, {"bufferView" : 5, "byteOffset" : 0, "componentType" : 5126, "count" : 36, "type" : "VEC3", "max" : [41.25, 25.125, 71.85238647460938], "min" : [0, 2, -1.3322676295501878E-15]}, {"bufferView" : 5, "byteOffset" : 12, "componentType" : 5126, "count" : 36, "type" : "VEC2", "max" : [10740.5361328125, 9842.4462890625], "min" : [-10740.5361328125, -74.25238800048828]}, {"bufferView" : 0, "byteOffset" : 1452, "componentType" : 5123, "count" : 132, "type" : "SCALAR", "max" : [131], "min" : [0]}, {"bufferView" : 6, "byteOffset" : 0, "componentType" : 5126, "count" : 132, "type" : "VEC3", "max" : [41.25, 2, 80.7249984741211], "min" : [0, 0, 71.85238647460938]}, {"bufferView" : 6, "byteOffset" : 12, "componentType" : 5126, "count" : 132, "type" : "VEC2", "max" : [10740.5361328125, 9819.3212890625], "min" : [-10740.5361328125, -83.125]}, {"bufferView" : 0, "byteOffset" : 1716, "componentType" : 5123, "count" : 36, "type" : "SCALAR", "max" : [35], "min" : [0]}, {"bufferView" : 7, "byteOffset" : 0, "componentType" : 5126, "count" : 36, "type" : "VEC3", "max" : [41.25, 2, 71.60238647460938], "min" : [20.875, 0, 21.47012710571289]}, {"bufferView" : 7, "byteOffset" : 12, "componentType" : 5126, "count" : 36, "type" : "VEC2", "max" : [10740.5361328125, 9819.3212890625], "min" : [-10740.5361328125, -74.00238800048828]}, {"bufferView" : 0, "byteOffset" : 1788, "componentType" : 5123, "count" : 36, "type" : "SCALAR", "max" : [35], "min" : [0]}, {"bufferView" : 8, "byteOffset" : 0, "componentType" : 5126, "count" : 36, "type" : "VEC3", "max" : [41.25, 2, 20.490825653076172], "min" : [0, 0, -3.9968028886505635E-15]}, {"bufferView" : 8, "byteOffset" : 12, "componentType" : 5126, "count" : 36, "type" : "VEC2", "max" : [10740.5361328125, 9819.3212890625], "min" : [-10740.5361328125, -22.890827178955078]}, {"bufferView" : 0, "byteOffset" : 1860, "componentType" : 5123, "count" : 36, "type" : "SCALAR", "max" : [35], "min" : [0]}, {"bufferView" : 9, "byteOffset" : 0, "componentType" : 5126, "count" : 36, "type" : "VEC3", "max" : [40.75, 25.125, -1.7763568394002505E-15], "min" : [0.5, 2, -2.4000000953674316]}, {"bufferView" : 9, "byteOffset" : 12, "componentType" : 5126, "count" : 36, "type" : "VEC2", "max" : [10740.0361328125, 9842.4462890625], "min" : [-10740.0361328125, -2.4000000953674316]}, {"bufferView" : 0, "byteOffset" : 1932, "componentType" : 5123, "count" : 324, "type" : "SCALAR", "max" : [323], "min" : [0]}, {"bufferView" : 10, "byteOffset" : 0, "componentType" : 5126, "count" : 324, "type" : "VEC3", "max" : [18.575719833374023, 0, 61.538944244384766], "min" : [17.50066375732422, -2.70031476020813, 31.820642471313477]}, {"bufferView" : 10, "byteOffset" : 12, "componentType" : 5126, "count" : 324, "type" : "VEC2", "max" : [10717.8623046875, 14504.76953125], "min" : [-10717.5478515625, -608.6504516601562]}], "asset" : {"generator" : "Aspose.3D 20.9.1", "version" : "2.0"}, "buffers" : [{"uri" : "buffer.bin", "byteLength" : 28424}], "bufferViews" : [{"buffer" : 0, "byteOffset" : 0, "byteLength" : 2580, "target" : 34963}, {"buffer" : 0, "byteOffset" : 2584, "byteLength" : 120, "byteStride" : 20, "target" : 34962}, {"buffer" : 0, "byteOffset" : 2708, "byteLength" : 6480, "byteStride" : 20, "target" : 34962}, {"buffer" : 0, "byteOffset" : 9192, "byteLength" : 6480, "byteStride" : 20, "target" : 34962}, {"buffer" : 0, "byteOffset" : 15676, "byteLength" : 720, "byteStride" : 20, "target" : 34962}, {"buffer" : 0, "byteOffset" : 16400, "byteLength" : 720, "byteStride" : 20, "target" : 34962}, {"buffer" : 0, "byteOffset" : 17124, "byteLength" : 2640, "byteStride" : 20, "target" : 34962}, {"buffer" : 0, "byteOffset" : 19768, "byteLength" : 720, "byteStride" : 20, "target" : 34962}, {"buffer" : 0, "byteOffset" : 20492, "byteLength" : 720, "byteStride" : 20, "target" : 34962}, {"buffer" : 0, "byteOffset" : 21216, "byteLength" : 720, "byteStride" : 20, "target" : 34962}, {"buffer" : 0, "byteOffset" : 21940, "byteLength" : 6480, "byteStride" : 20, "target" : 34962}], "cameras" : [{"perspective" : {"aspectRatio" : 1.3333333333333333, "yfov" : 0.43833943764363487, "zfar" : 1000, "znear" : 1}, "type" : "perspective"}], "materials" : [{"pbrMetallicRoughness" : {"baseColorFactor" : [0, 0, 0, 1], "metallicFactor" : 0, "roughnessFactor" : 0}, "emissiveFactor" : [0, 0, 0], "alphaMode" : "OPAQUE", "doubleSided" : false}, {"pbrMetallicRoughness" : {"baseColorFactor" : [0.7568627450980392, 0.7568627450980392, 0.7568627450980392, 1], "metallicFactor" : 0, "roughnessFactor" : 0}, "emissiveFactor" : [0, 0, 0], "alphaMode" : "OPAQUE", "doubleSided" : false}, {"pbrMetallicRoughness" : {"baseColorFactor" : [0.7568627450980392, 0.7568627450980392, 0.7568627450980392, 1], "metallicFactor" : 0, "roughnessFactor" : 0}, "emissiveFactor" : [0, 0, 0], "alphaMode" : "OPAQUE", "doubleSided" : false}, {"pbrMetallicRoughness" : {"baseColorFactor" : [0.7568627450980392, 0.7568627450980392, 0.7568627450980392, 1], "metallicFactor" : 0, "roughnessFactor" : 0}, "emissiveFactor" : [0, 0, 0], "alphaMode" : "OPAQUE", "doubleSided" : false}, {"pbrMetallicRoughness" : {"baseColorFactor" : [0.30980392156862746, 0.30980392156862746, 0.30980392156862746, 1], "metallicFactor" : 0, "roughnessFactor" : 0}, "emissiveFactor" : [0, 0, 0], "alphaMode" : "OPAQUE", "doubleSided" : false}, {"pbrMetallicRoughness" : {"baseColorFactor" : [0.7568627450980392, 0.7568627450980392, 0.7568627450980392, 1], "metallicFactor" : 0, "roughnessFactor" : 0}, "emissiveFactor" : [0, 0, 0], "alphaMode" : "OPAQUE", "doubleSided" : false}, {"pbrMetallicRoughness" : {"baseColorFactor" : [0.7568627450980392, 0.7568627450980392, 0.7568627450980392, 1], "metallicFactor" : 0, "roughnessFactor" : 0}, "emissiveFactor" : [0, 0, 0], "alphaMode" : "OPAQUE", "doubleSided" : false}, {"pbrMetallicRoughness" : {"baseColorFactor" : [0.7568627450980392, 0.7568627450980392, 0.7568627450980392, 1], "metallicFactor" : 0, "roughnessFactor" : 0}, "emissiveFactor" : [0, 0, 0], "alphaMode" : "OPAQUE", "doubleSided" : false}, {"pbrMetallicRoughness" : {"baseColorFactor" : [0.30980392156862746, 0.30980392156862746, 0.30980392156862746, 1], "metallicFactor" : 0, "roughnessFactor" : 0}, "emissiveFactor" : [0, 0, 0], "alphaMode" : "OPAQUE", "doubleSided" : false}, {"pbrMetallicRoughness" : {"baseColorFactor" : [0.7568627450980392, 0.7568627450980392, 0.7568627450980392, 1], "metallicFactor" : 0, "roughnessFactor" : 0}, "emissiveFactor" : [0, 0, 0], "alphaMode" : "OPAQUE", "doubleSided" : false}], "meshes" : [{"primitives" : [{"attributes" : {"POSITION" : 1, "TEXCOORD_0" : 2}, "indices" : 0, "material" : 0, "mode" : 4}]}, {"primitives" : [{"attributes" : {"POSITION" : 4, "TEXCOORD_0" : 5}, "indices" : 3, "material" : 1, "mode" : 4}]}, {"primitives" : [{"attributes" : {"POSITION" : 7, "TEXCOORD_0" : 8}, "indices" : 6, "material" : 2, "mode" : 4}]}, {"primitives" : [{"attributes" : {"POSITION" : 10, "TEXCOORD_0" : 11}, "indices" : 9, "material" : 3, "mode" : 4}]}, {"primitives" : [{"attributes" : {"POSITION" : 13, "TEXCOORD_0" : 14}, "indices" : 12, "material" : 4, "mode" : 4}]}, {"primitives" : [{"attributes" : {"POSITION" : 16, "TEXCOORD_0" : 17}, "indices" : 15, "material" : 5, "mode" : 4}]}, {"primitives" : [{"attributes" : {"POSITION" : 19, "TEXCOORD_0" : 20}, "indices" : 18, "material" : 6, "mode" : 4}]}, {"primitives" : [{"attributes" : {"POSITION" : 22, "TEXCOORD_0" : 23}, "indices" : 21, "material" : 7, "mode" : 4}]}, {"primitives" : [{"attributes" : {"POSITION" : 25, "TEXCOORD_0" : 26}, "indices" : 24, "material" : 8, "mode" : 4}]}, {"primitives" : [{"attributes" : {"POSITION" : 28, "TEXCOORD_0" : 29}, "indices" : 27, "material" : 9, "mode" : 4}]}], "nodes" : [{"camera" : 0, "matrix" : [1, 0, 0, 0, 0, 1, 0, 0, 0, 0, 1, 0, 557.6221923828125, -520.1072387695312, 341.67742919921875, 1], "name" : "Home"}, {"mesh" : 1, "name" : "Group_1"}, {"mesh" : 2, "name" : "Group_2"}, {"mesh" : 3, "name" : "Group_3"}, {"mesh" : 4, "name" : "Group_4"}, {"mesh" : 5, "name" : "Group_5"}, {"mesh" : 6, "name" : "Group_6"}, {"mesh" : 7, "name" : "Group_7"}, {"mesh" : 8, "name" : "Group_8"}, {"mesh" : 9, "name" : "Group_9"}, {"children" : [1, 2, 3, 4, 5, 6, 7, 8, 9], "matrix" : [-1, 0, 0, 0, 0, 0, 1, 0, 0, 1, 0, 0, 0, 0, 0, 1], "mesh" : 0, "name" : "Model"}], "scene" : 0, "scenes" : [{"nodes" : [0, 10]}]}